<svg width="258" height="66" viewBox="0 0 258 66" fill="none" xmlns="http://www.w3.org/2000/svg">
<path fill-rule="evenodd" clip-rule="evenodd" d="M4 0C1.79086 0 0 1.79086 0 4V62C0 64.2091 1.79086 66 4 66H254C256.209 66 258 64.2091 258 62V4C258 1.79086 256.209 0 254 0H4ZM43.1202 30.1638H46.9335C46.7772 29.0014 46.4441 27.9682 45.9343 27.0641C45.4313 26.1533 44.7889 25.3852 44.0072 24.7598C43.2255 24.1276 42.3351 23.6484 41.3358 23.3221C40.3366 22.9959 39.2558 22.8327 38.0934 22.8327C36.2717 22.8327 34.6403 23.2576 33.1993 24.1072C31.7582 24.9569 30.6196 26.1839 29.7836 27.7881C28.9475 29.3855 28.5294 31.3092 28.5294 33.5591C28.5294 35.8023 28.9441 37.7259 29.7734 39.3301C30.6027 40.9343 31.7378 42.1613 33.1789 43.011C34.6199 43.8607 36.2581 44.2855 38.0934 44.2855C39.3374 44.2855 40.4692 44.102 41.4888 43.7349C42.5084 43.361 43.3989 42.8444 44.1602 42.1851C44.9215 41.5189 45.5367 40.7508 46.0057 39.8807C46.4815 39.0107 46.7908 38.0794 46.9335 37.087L43.1202 37.0666C43.0046 37.6784 42.7939 38.2222 42.488 38.698C42.1889 39.1738 41.8185 39.5749 41.3766 39.9011C40.9416 40.2274 40.4488 40.4755 39.8982 40.6455C39.3544 40.8086 38.7698 40.8902 38.1444 40.8902C37.016 40.8902 36.0134 40.6149 35.1366 40.0643C34.2665 39.5069 33.5799 38.6844 33.0769 37.5968C32.5807 36.5024 32.3326 35.1565 32.3326 33.5591C32.3326 31.9889 32.5807 30.66 33.0769 29.5724C33.5731 28.478 34.2597 27.6487 35.1366 27.0845C36.0134 26.5135 37.0194 26.2281 38.1546 26.2281C38.7936 26.2281 39.3884 26.3164 39.939 26.4932C40.4963 26.6631 40.9926 26.918 41.4276 27.2579C41.8626 27.5977 42.2263 28.0124 42.5186 28.5018C42.8109 28.9844 43.0114 29.5384 43.1202 30.1638ZM69.0844 39.3403C69.9273 37.7361 70.3488 35.8091 70.3488 33.5591C70.3488 31.3092 69.9273 29.3855 69.0844 27.7881C68.2484 26.1839 67.1064 24.9569 65.6585 24.1072C64.2175 23.2576 62.5827 22.8327 60.7542 22.8327C58.9256 22.8327 57.2875 23.2576 55.8396 24.1072C54.3985 24.9569 53.2566 26.1839 52.4137 27.7881C51.5776 29.3855 51.1595 31.3092 51.1595 33.5591C51.1595 35.8023 51.5776 37.7259 52.4137 39.3301C53.2566 40.9276 54.3985 42.1545 55.8396 43.011C57.2875 43.8607 58.9256 44.2855 60.7542 44.2855C62.5827 44.2855 64.2175 43.8607 65.6585 43.011C67.1064 42.1613 68.2484 40.9377 69.0844 39.3403ZM65.8013 29.552C66.2975 30.6396 66.5456 31.9753 66.5456 33.5591C66.5456 35.1429 66.2975 36.482 65.8013 37.5764C65.3119 38.664 64.6321 39.4899 63.762 40.0541C62.892 40.6115 61.8893 40.8902 60.7542 40.8902C59.619 40.8902 58.6164 40.6115 57.7463 40.0541C56.8762 39.4899 56.1931 38.664 55.6968 37.5764C55.2074 36.482 54.9627 35.1429 54.9627 33.5591C54.9627 31.9753 55.2074 30.6396 55.6968 29.552C56.1931 28.4576 56.8762 27.6317 57.7463 27.0743C58.6164 26.5101 59.619 26.2281 60.7542 26.2281C61.8893 26.2281 62.892 26.5101 63.762 27.0743C64.6321 27.6317 65.3119 28.4576 65.8013 29.552ZM79.8462 23.1182H75.2171V44H78.847V29.6234H79.0407L84.8117 43.9388H87.5239L93.295 29.654H93.4887V44H97.1185V23.1182H92.4895L86.2902 38.2494H86.0455L79.8462 23.1182ZM107.159 23.1182H102.53V44H106.16V29.6234H106.353L112.124 43.9388H114.837L120.608 29.654H120.801V44H124.431V23.1182H119.802L113.603 38.2494H113.358L107.159 23.1182ZM128.486 44H132.524L134.251 38.8509H142.102L143.832 44H147.869L140.508 23.1182H135.838L128.486 44ZM141.081 35.8125L138.254 27.4006H138.091L135.27 35.8125H141.081ZM165.707 44H169.072V23.1182H165.31V37.3521H165.126L155.297 23.1182H151.912V44H155.695V29.7763H155.868L165.707 44ZM174.486 44H181.562C183.683 44 185.498 43.582 187.007 42.7459C188.523 41.9098 189.682 40.71 190.484 39.1466C191.293 37.5832 191.697 35.7139 191.697 33.5387C191.697 31.3703 191.296 29.5078 190.494 27.9512C189.692 26.3946 188.543 25.2016 187.048 24.3723C185.559 23.5363 183.778 23.1182 181.705 23.1182H174.486V44ZM181.379 40.727H178.269V26.3912H181.491C182.905 26.3912 184.087 26.6563 185.039 27.1865C185.997 27.7099 186.721 28.5018 187.211 29.5622C187.7 30.6158 187.945 31.9413 187.945 33.5387C187.945 35.1361 187.7 36.4684 187.211 37.5356C186.721 38.596 185.991 39.3947 185.019 39.9317C184.047 40.4619 182.833 40.727 181.379 40.727ZM210.165 23.1182H196.583V44H210.246V40.829H200.366V35.1293H209.461V31.9583H200.366V26.2892H210.165V23.1182ZM223.147 23.1182H215.316V44H219.099V36.3529H222.948L227.052 44H231.273L226.756 35.733C226.892 35.6781 227.025 35.6197 227.154 35.5576C228.255 35.0206 229.088 34.2626 229.652 33.2838C230.223 32.2982 230.508 31.1358 230.508 29.7967C230.508 28.4644 230.226 27.2987 229.662 26.2994C229.105 25.2934 228.279 24.5117 227.184 23.9543C226.097 23.3969 224.751 23.1182 223.147 23.1182ZM219.099 33.2124H222.586C223.524 33.2124 224.292 33.0833 224.89 32.825C225.488 32.5599 225.93 32.1758 226.216 31.6728C226.508 31.163 226.654 30.5376 226.654 29.7967C226.654 29.0558 226.508 28.4236 226.216 27.9002C225.923 27.37 225.478 26.969 224.88 26.6971C224.282 26.4184 223.51 26.279 222.565 26.279H219.099V33.2124Z" fill="#EBA902"/>
</svg>
