<svg width="335" height="223" viewBox="0 0 335 223" fill="none" xmlns="http://www.w3.org/2000/svg">
<path d="M43.8465 180.124C30.2053 180.124 19.7496 176.976 12.4794 170.68C5.28406 164.385 1.6864 155.091 1.6864 142.799C1.6864 130.507 5.47144 121.213 13.0415 114.917C20.6116 108.621 31.517 105.473 45.7577 105.473C50.4047 105.473 54.5645 105.735 58.2371 106.26C61.9846 106.71 65.5823 107.534 69.0301 108.733V131.893C65.5823 130.544 62.0596 129.645 58.4619 129.195C54.9392 128.67 51.3041 128.408 47.5565 128.408C42.31 128.408 37.9628 129.457 34.515 131.556C31.1422 133.58 29.4558 137.327 29.4558 142.799C29.4558 148.27 30.655 152.055 33.0535 154.154C35.5269 156.177 39.0496 157.189 43.6216 157.189C46.02 157.189 48.2686 156.927 50.3672 156.402V152.018H38.3375V135.603H72.8526V173.041C69.7796 174.915 65.8446 176.564 61.0478 177.988C56.2509 179.412 50.5171 180.124 43.8465 180.124ZM96.4455 179V106.597H154.345V126.159H123.653V132.68H150.073V152.917H123.653V159.438H154.345V179H96.4455ZM175.671 179V106.597H233.571V126.159H202.879V132.68H229.299V152.917H202.879V159.438H233.571V179H175.671ZM254.897 179V106.597H282.104V126.834L297.957 106.597H328.649L303.915 136.615L330.898 179H302.116L287.276 153.816L282.104 160.112V179H254.897Z" fill="#EBA902"/>
<path d="M4.4984 87.2931H3.4984V88.2931H4.4984V87.2931ZM4.4984 36.4691V35.4691H3.4984V36.4691H4.4984ZM15.1525 36.4691H16.1525V35.4691H15.1525V36.4691ZM15.1525 79.0855H14.1525V80.0855H15.1525V79.0855ZM40.1699 79.0855H41.1699V78.0855H40.1699V79.0855ZM40.1699 87.2931V88.2931H41.1699V87.2931H40.1699ZM5.4984 87.2931V36.4691H3.4984V87.2931H5.4984ZM4.4984 37.4691H15.1525V35.4691H4.4984V37.4691ZM14.1525 36.4691V79.0855H16.1525V36.4691H14.1525ZM15.1525 80.0855H40.1699V78.0855H15.1525V80.0855ZM39.1699 79.0855V87.2931H41.1699V79.0855H39.1699ZM40.1699 86.2931H4.4984V88.2931H40.1699V86.2931ZM52.7051 41.9145L51.998 41.2074L51.998 41.2074L52.7051 41.9145ZM89.6393 41.9145L90.3464 41.2074L90.3464 41.2074L89.6393 41.9145ZM81.6685 74.9027L80.8919 74.2727L80.8905 74.2744L81.6685 74.9027ZM81.6685 48.7016L80.9028 49.3447L80.9097 49.353L80.9168 49.3611L81.6685 48.7016ZM60.597 48.7016L59.8388 48.0495L59.8378 48.0508L60.597 48.7016ZM60.597 74.9027L59.8133 75.5238L59.8197 75.532L59.8264 75.54L60.597 74.9027ZM71.1722 87.0823C63.1055 87.0823 57.2359 84.965 53.3704 80.9019C49.496 76.8294 47.4705 70.6306 47.4705 62.1178H45.4705C45.4705 70.9147 47.5619 77.698 51.9214 82.2804C56.2898 86.8721 62.7711 89.0823 71.1722 89.0823V87.0823ZM47.4705 62.1178C47.4705 52.9208 49.5277 46.5061 53.4122 42.6216L51.998 41.2074C47.5696 45.6358 45.4705 52.6899 45.4705 62.1178H47.4705ZM53.4122 42.6216C57.3182 38.7156 63.1778 36.6799 71.1722 36.6799V34.6799C62.8566 34.6799 56.4048 36.8006 51.998 41.2074L53.4122 42.6216ZM71.1722 36.6799C79.1666 36.6799 85.0262 38.7156 88.9322 42.6216L90.3464 41.2074C85.9396 36.8006 79.4878 34.6799 71.1722 34.6799V36.6799ZM88.9322 42.6216C92.8167 46.5061 94.8739 52.9208 94.8739 62.1178H96.8739C96.8739 52.6899 94.7748 45.6358 90.3464 41.2074L88.9322 42.6216ZM94.8739 62.1178C94.8739 70.6306 92.8484 76.8294 88.974 80.9019C85.1085 84.965 79.2389 87.0823 71.1722 87.0823V89.0823C79.5733 89.0823 86.0546 86.8721 90.423 82.2804C94.7825 77.698 96.8739 70.9147 96.8739 62.1178H94.8739ZM71.1722 80.0065C76.1461 80.0065 79.9843 78.5794 82.4464 75.5311L80.8905 74.2744C78.9332 76.6978 75.7738 78.0065 71.1722 78.0065V80.0065ZM82.445 75.5328C84.916 72.4871 86.062 67.9539 86.062 62.1178H84.062C84.062 67.7514 82.9456 71.7414 80.8919 74.2727L82.445 75.5328ZM86.062 62.1178C86.062 55.6926 84.9322 50.9046 82.4201 48.042L80.9168 49.3611C82.9294 51.6546 84.062 55.8107 84.062 62.1178H86.062ZM82.4342 48.0584C79.9681 45.1225 76.1338 43.7556 71.1722 43.7556V45.7556C75.7862 45.7556 78.9494 47.0193 80.9028 49.3447L82.4342 48.0584ZM71.1722 43.7556C66.2088 43.7556 62.3555 45.1232 59.8388 48.0495L61.3552 49.3536C63.3633 47.0186 66.5601 45.7556 71.1722 45.7556V43.7556ZM59.8378 48.0508C57.3849 50.9125 56.2824 55.6961 56.2824 62.1178H58.2824C58.2824 55.8072 59.3897 51.6467 61.3563 49.3523L59.8378 48.0508ZM56.2824 62.1178C56.2824 67.9499 57.4005 72.4792 59.8133 75.5238L61.3808 74.2817C59.374 71.7493 58.2824 67.7553 58.2824 62.1178H56.2824ZM59.8264 75.54C62.3393 78.5789 66.1967 80.0065 71.1722 80.0065V78.0065C66.5722 78.0065 63.3794 76.6983 61.3677 74.2655L59.8264 75.54ZM106.859 87.2931H105.859V88.2931H106.859V87.2931ZM106.859 36.4691V35.4691H105.859V36.4691H106.859ZM144.109 41.1253L143.359 41.7865L143.364 41.7928L144.109 41.1253ZM145.53 62.3546L144.719 61.7684L144.711 61.7799L145.53 62.3546ZM138.111 67.7211L137.786 66.7756L136.083 67.3617L137.481 68.4972L138.111 67.7211ZM140.084 69.9308L139.227 70.4453L139.239 70.4657L139.252 70.4855L140.084 69.9308ZM141.662 73.0876L140.734 73.459L140.739 73.4722L140.745 73.4852L141.662 73.0876ZM147.818 87.2931V88.2931H149.341L148.736 86.8955L147.818 87.2931ZM136.769 87.2931L135.854 87.6953L136.117 88.2931H136.769V87.2931ZM130.772 73.64L131.687 73.2378L131.682 73.2262L130.772 73.64ZM129.035 71.1935L129.635 70.3935L129.635 70.3935L129.035 71.1935ZM117.513 70.4833V69.4833H116.513V70.4833H117.513ZM117.513 87.2931V88.2931H118.513V87.2931H117.513ZM117.513 61.6443H116.513V62.6443H117.513V61.6443ZM135.033 59.8292L135.642 60.6228L135.65 60.6165L135.658 60.61L135.033 59.8292ZM135.349 47.281L136.042 46.5602L136.042 46.5602L135.349 47.281ZM117.513 45.308V44.308H116.513V45.308H117.513ZM107.859 87.2931V36.4691H105.859V87.2931H107.859ZM106.859 37.4691H131.245V35.4691H106.859V37.4691ZM131.245 37.4691C136.92 37.4691 140.881 38.9749 143.359 41.7865L144.859 40.4641C141.866 37.0674 137.25 35.4691 131.245 35.4691V37.4691ZM143.364 41.7928C145.895 44.6154 147.213 48.4844 147.213 53.5156H149.213C149.213 48.1296 147.795 43.7383 144.854 40.4578L143.364 41.7928ZM147.213 53.5156C147.213 56.7515 146.37 59.4865 144.719 61.7685L146.34 62.9407C148.267 60.2771 149.213 57.1194 149.213 53.5156H147.213ZM144.711 61.7799C143.111 64.0593 140.821 65.7304 137.786 66.7756L138.437 68.6666C141.82 67.502 144.476 65.5955 146.348 62.9292L144.711 61.7799ZM137.481 68.4972C138.248 69.1206 138.823 69.7719 139.227 70.4453L140.942 69.4163C140.399 68.5114 139.658 67.6895 138.742 66.945L137.481 68.4972ZM139.252 70.4855C139.726 71.1964 140.222 72.1798 140.734 73.459L142.591 72.7162C142.05 71.3648 141.494 70.2436 140.916 69.3761L139.252 70.4855ZM140.745 73.4852L146.901 87.6907L148.736 86.8955L142.58 72.69L140.745 73.4852ZM147.818 86.2931H136.769V88.2931H147.818V86.2931ZM137.685 86.8909L131.687 73.2378L129.856 74.0422L135.854 87.6953L137.685 86.8909ZM131.682 73.2262C131.124 71.9996 130.459 71.0113 129.635 70.3935L128.435 71.9935C128.874 72.3228 129.367 72.9655 129.861 74.0538L131.682 73.2262ZM129.635 70.3935C128.735 69.7184 127.406 69.4833 125.879 69.4833V71.4833C127.298 71.4833 128.073 71.7216 128.435 71.9935L129.635 70.3935ZM125.879 69.4833H117.513V71.4833H125.879V69.4833ZM116.513 70.4833V87.2931H118.513V70.4833H116.513ZM117.513 86.2931H106.859V88.2931H117.513V86.2931ZM117.513 62.6443H128.483V60.6443H117.513V62.6443ZM128.483 62.6443C131.405 62.6443 133.831 62.0112 135.642 60.6228L134.425 59.0356C133.079 60.0673 131.138 60.6443 128.483 60.6443V62.6443ZM135.658 60.61C137.567 59.0828 138.401 56.6216 138.401 53.5156H136.401C136.401 56.3023 135.656 58.0501 134.409 59.0483L135.658 60.61ZM138.401 53.5156C138.401 50.5371 137.686 48.1404 136.042 46.5602L134.656 48.0018C135.748 49.0522 136.401 50.812 136.401 53.5156H138.401ZM136.042 46.5602C134.416 44.9969 132.041 44.308 129.114 44.308V46.308C131.765 46.308 133.546 46.9345 134.656 48.0018L136.042 46.5602ZM129.114 44.308H117.513V46.308H129.114V44.308ZM116.513 45.308V61.6443H118.513V45.308H116.513ZM159.196 87.2931H158.196V88.2931H159.196V87.2931ZM159.196 36.4691V35.4691H158.196V36.4691H159.196ZM197.708 42.388L196.991 43.0856L197.001 43.0951L197.708 42.388ZM197.787 81.2952L197.061 80.6072L197.061 80.6075L197.787 81.2952ZM169.85 79.0855H168.85V80.0855H169.85V79.0855ZM186.58 77.7438L186.98 78.6605L186.99 78.6563L187 78.6518L186.58 77.7438ZM191.158 72.693L190.238 72.3014L190.234 72.3112L191.158 72.693ZM186.896 46.6497L187.305 45.7368L187.305 45.7368L186.896 46.6497ZM169.85 45.308V44.308H168.85V45.308H169.85ZM160.196 87.2931V36.4691H158.196V87.2931H160.196ZM159.196 37.4691H180.504V35.4691H159.196V37.4691ZM180.504 37.4691C187.969 37.4691 193.402 39.3978 196.992 43.0855L198.425 41.6905C194.333 37.4863 188.296 35.4691 180.504 35.4691V37.4691ZM197.001 43.0951C200.613 46.7076 202.548 52.9529 202.548 62.1178H204.548C204.548 52.763 202.589 45.8551 198.415 41.6809L197.001 43.0951ZM202.548 62.1178C202.548 70.7348 200.649 76.8228 197.061 80.6072L198.513 81.9832C202.606 77.6652 204.548 70.9683 204.548 62.1178H202.548ZM197.061 80.6075C193.528 84.3371 188.077 86.2931 180.504 86.2931V88.2931C188.399 88.2931 194.47 86.2505 198.513 81.9829L197.061 80.6075ZM180.504 86.2931H159.196V88.2931H180.504V86.2931ZM169.85 80.0855H179.004V78.0855H169.85V80.0855ZM179.004 80.0855C182.096 80.0855 184.767 79.6252 186.98 78.6605L186.181 76.8271C184.29 77.6513 181.91 78.0855 179.004 78.0855V80.0855ZM187 78.6518C189.316 77.5826 191.003 75.6882 192.082 73.0748L190.234 72.3112C189.314 74.5382 187.949 76.011 186.161 76.8359L187 78.6518ZM192.078 73.0846C193.207 70.4302 193.736 66.7482 193.736 62.1178H191.736C191.736 66.642 191.213 70.0102 190.238 72.3014L192.078 73.0846ZM193.736 62.1178C193.736 57.496 193.261 53.8501 192.247 51.2572L190.384 51.986C191.264 54.2334 191.736 57.585 191.736 62.1178H193.736ZM192.247 51.2572C191.223 48.6415 189.587 46.7581 187.305 45.7368L186.488 47.5625C188.204 48.3301 189.514 49.7613 190.384 51.986L192.247 51.2572ZM187.305 45.7368C185.13 44.7639 182.344 44.308 179.004 44.308V46.308C182.188 46.308 184.664 46.7466 186.488 47.5625L187.305 45.7368ZM179.004 44.308H169.85V46.308H179.004V44.308ZM168.85 45.308V79.0855H170.85V45.308H168.85ZM240.086 41.9145L239.379 41.2074L239.379 41.2074L240.086 41.9145ZM277.02 41.9145L277.727 41.2074L277.727 41.2074L277.02 41.9145ZM269.049 74.9027L268.273 74.2727L268.271 74.2744L269.049 74.9027ZM269.049 48.7016L268.284 49.3447L268.29 49.353L268.298 49.3611L269.049 48.7016ZM247.978 48.7016L247.22 48.0495L247.219 48.0508L247.978 48.7016ZM247.978 74.9027L247.194 75.5238L247.201 75.532L247.207 75.54L247.978 74.9027ZM258.553 87.0823C250.486 87.0823 244.617 84.965 240.751 80.9019C236.877 76.8294 234.851 70.6306 234.851 62.1178H232.851C232.851 70.9147 234.943 77.698 239.302 82.2804C243.671 86.8721 250.152 89.0823 258.553 89.0823V87.0823ZM234.851 62.1178C234.851 52.9208 236.909 46.5061 240.793 42.6216L239.379 41.2074C234.95 45.6358 232.851 52.6899 232.851 62.1178H234.851ZM240.793 42.6216C244.699 38.7156 250.559 36.6799 258.553 36.6799V34.6799C250.237 34.6799 243.786 36.8006 239.379 41.2074L240.793 42.6216ZM258.553 36.6799C266.547 36.6799 272.407 38.7156 276.313 42.6216L277.727 41.2074C273.32 36.8006 266.869 34.6799 258.553 34.6799V36.6799ZM276.313 42.6216C280.197 46.5061 282.255 52.9208 282.255 62.1178H284.255C284.255 52.6899 282.156 45.6358 277.727 41.2074L276.313 42.6216ZM282.255 62.1178C282.255 70.6306 280.229 76.8294 276.355 80.9019C272.489 84.965 266.62 87.0823 258.553 87.0823V89.0823C266.954 89.0823 273.435 86.8721 277.804 82.2804C282.163 77.698 284.255 70.9147 284.255 62.1178H282.255ZM258.553 80.0065C263.527 80.0065 267.365 78.5794 269.827 75.5311L268.271 74.2744C266.314 76.6978 263.155 78.0065 258.553 78.0065V80.0065ZM269.826 75.5328C272.297 72.4871 273.443 67.9539 273.443 62.1178H271.443C271.443 67.7514 270.326 71.7414 268.273 74.2727L269.826 75.5328ZM273.443 62.1178C273.443 55.6926 272.313 50.9046 269.801 48.042L268.298 49.3611C270.31 51.6546 271.443 55.8107 271.443 62.1178H273.443ZM269.815 48.0584C267.349 45.1225 263.515 43.7556 258.553 43.7556V45.7556C263.167 45.7556 266.33 47.0193 268.284 49.3447L269.815 48.0584ZM258.553 43.7556C253.59 43.7556 249.736 45.1232 247.22 48.0495L248.736 49.3536C250.744 47.0186 253.941 45.7556 258.553 45.7556V43.7556ZM247.219 48.0508C244.766 50.9125 243.663 55.6961 243.663 62.1178H245.663C245.663 55.8072 246.77 51.6467 248.737 49.3523L247.219 48.0508ZM243.663 62.1178C243.663 67.9499 244.781 72.4792 247.194 75.5238L248.762 74.2817C246.755 71.7493 245.663 67.7553 245.663 62.1178H243.663ZM247.207 75.54C249.72 78.5789 253.577 80.0065 258.553 80.0065V78.0065C253.953 78.0065 250.76 76.6983 248.748 74.2655L247.207 75.54ZM294.24 87.2931H293.24V88.2931H294.24V87.2931ZM294.24 36.4691V35.4691H293.24V36.4691H294.24ZM329.99 36.4691H330.99V35.4691H329.99V36.4691ZM329.99 44.7556V45.7556H330.99V44.7556H329.99ZM304.894 44.7556V43.7556H303.894V44.7556H304.894ZM304.894 57.7773H303.894V58.7773H304.894V57.7773ZM327.07 57.7773H328.07V56.7773H327.07V57.7773ZM327.07 65.9849V66.9849H328.07V65.9849H327.07ZM304.894 65.9849V64.9849H303.894V65.9849H304.894ZM304.894 87.2931V88.2931H305.894V87.2931H304.894ZM295.24 87.2931V36.4691H293.24V87.2931H295.24ZM294.24 37.4691H329.99V35.4691H294.24V37.4691ZM328.99 36.4691V44.7556H330.99V36.4691H328.99ZM329.99 43.7556H304.894V45.7556H329.99V43.7556ZM303.894 44.7556V57.7773H305.894V44.7556H303.894ZM304.894 58.7773H327.07V56.7773H304.894V58.7773ZM326.07 57.7773V65.9849H328.07V57.7773H326.07ZM327.07 64.9849H304.894V66.9849H327.07V64.9849ZM303.894 65.9849V87.2931H305.894V65.9849H303.894ZM304.894 86.2931H294.24V88.2931H304.894V86.2931Z" fill="#EBA902"/>
</svg>
